<?xml version="1.0" standalone="no"?>
<!DOCTYPE svg PUBLIC "-//W3C//DTD SVG 20010904//EN"
 "http://www.w3.org/TR/2001/REC-SVG-20010904/DTD/svg10.dtd">
<svg version="1.0" xmlns="http://www.w3.org/2000/svg"
 width="700.000000pt" height="700.000000pt" viewBox="0 0 700.000000 700.000000"
 preserveAspectRatio="xMidYMid meet">
<metadata>
Created by potrace 1.11, written by Peter Selinger 2001-2013
</metadata>
<g transform="translate(0.000000,700.000000) scale(0.100000,-0.100000)"
fill="#000000" stroke="none">
<path d="M3708 6886 c-58 -16 -90 -46 -122 -117 -23 -51 -76 -247 -112 -412
-8 -39 -17 -79 -19 -87 -4 -17 -83 -364 -95 -420 -5 -19 -14 -61 -21 -93 -7
-31 -17 -56 -23 -54 -26 9 -130 249 -150 347 -3 14 -11 57 -19 95 -9 39 -18
91 -22 118 -3 26 -9 47 -13 47 -4 0 -16 -15 -27 -33 -137 -228 -199 -416 -221
-667 -4 -41 -8 -77 -10 -79 -7 -8 -168 46 -249 85 -98 46 -184 116 -275 222
-100 116 -148 167 -153 162 -7 -7 -19 -136 -18 -201 2 -177 74 -306 242 -429
48 -36 88 -67 88 -70 0 -3 -32 -26 -72 -52 -149 -96 -226 -186 -295 -346 -22
-50 -38 -92 -35 -92 16 0 199 48 349 91 241 69 394 104 394 91 0 -4 -12 -50
-26 -102 -58 -212 -93 -413 -77 -442 9 -16 217 117 438 282 187 139 161 131
241 77 98 -65 150 -112 310 -274 l141 -144 11 28 c7 15 25 78 41 138 40 147
74 245 107 305 27 50 32 53 94 52 52 0 147 -21 285 -62 214 -65 297 -87 358
-95 l48 -7 -6 28 c-14 63 -48 160 -70 201 -30 57 -109 151 -160 191 -22 18
-56 45 -75 61 l-35 29 69 69 c161 159 220 275 231 451 3 51 3 92 0 92 -6 0
-296 -209 -305 -220 -8 -9 -132 -86 -175 -108 -72 -37 -164 -72 -191 -72 -9 0
-8 11 3 48 9 26 26 94 39 152 19 90 22 129 19 275 -2 166 -6 199 -26 278 l-10
38 -30 -41 c-17 -23 -69 -110 -117 -193 -47 -84 -105 -179 -129 -212 -48 -69
-121 -150 -128 -143 -6 6 38 224 76 373 36 139 113 394 163 542 68 196 64 247
-21 288 -47 23 -151 28 -215 11z"/>
<path d="M1758 5476 c-1 -2 -46 -6 -98 -9 -336 -21 -710 -181 -932 -400 -34
-34 -96 -111 -137 -172 -41 -60 -77 -112 -81 -115 -3 -3 -26 -32 -51 -65 -24
-33 -47 -62 -50 -65 -12 -9 -133 -251 -181 -360 -43 -100 -116 -287 -124 -320
-2 -8 -15 -53 -29 -100 -14 -47 -37 -129 -51 -183 l-25 -98 4 -482 c1 -265 6
-491 9 -502 4 -11 19 -65 33 -120 15 -55 35 -131 45 -170 67 -254 141 -429
274 -648 138 -227 319 -447 496 -602 92 -80 326 -242 440 -304 25 -13 79 -43
121 -66 85 -47 253 -129 314 -152 22 -9 45 -19 50 -23 6 -4 28 -13 50 -20 22
-7 45 -16 50 -20 14 -11 326 -115 420 -140 92 -25 366 -88 410 -94 17 -2 77
-11 135 -20 58 -8 134 -19 170 -23 87 -11 926 -10 1015 0 39 5 88 10 110 12
22 3 56 7 75 10 19 3 49 7 65 10 217 28 627 133 828 211 190 73 523 248 642
336 6 5 57 43 115 85 119 88 432 392 529 514 183 229 386 589 461 819 28 84
96 349 129 500 9 40 11 192 9 560 l-3 505 -39 120 c-140 438 -304 729 -552
980 -202 204 -393 343 -569 414 -44 18 -89 36 -100 41 -62 26 -210 54 -350 66
-139 12 -565 8 -614 -5 -51 -14 -101 -60 -101 -91 0 -12 49 -95 108 -184 119
-179 145 -233 164 -346 12 -67 13 -112 9 -272 l-1 -47 -67 25 c-38 14 -97 37
-133 51 -67 26 -275 128 -345 168 -43 26 -175 62 -240 67 -33 2 -40 0 -43 -17
-15 -100 -116 -403 -181 -548 l-31 -68 -247 251 c-252 256 -313 307 -357 296
-13 -3 -64 -35 -114 -70 -114 -82 -227 -151 -422 -255 -85 -46 -170 -93 -189
-104 l-34 -21 7 55 c4 30 21 115 38 189 16 74 32 146 34 160 2 14 6 34 9 46 3
12 7 38 10 58 l6 36 -58 -5 c-32 -3 -67 -8 -79 -10 -12 -3 -38 -7 -59 -11 -20
-3 -136 -34 -257 -69 -120 -35 -236 -67 -256 -70 -20 -4 -59 -10 -85 -14 -26
-5 -50 -5 -52 -1 -4 7 30 109 60 177 64 143 140 255 249 365 46 46 92 97 103
113 18 26 53 123 53 147 0 25 -233 77 -375 84 -60 3 -115 7 -122 9 -6 2 -13 2
-15 1z"/>
</g>
</svg>
